[2025-06-01T20:42:28.735973345] Einstellungen gespeichert
[2025-06-01T20:53:37.763454489] Directory loaded: /home/patrick/Nya/School-Big-Datas/MED/3.Klasse/5Min-Video-GitHub
[2025-06-01T20:58:31.512645475] Directory loaded: /home/patrick/Nya/School-Big-Datas/MED/3.Klasse/5Min-Video-GitHub
[2025-06-01T20:59:40.049071156] Audio extract: /home/patrick/Nya/School-Big-Datas/MED/3.Klasse/5Min-Video-GitHub/katzen baum-30fps.mp4 -> hduwehfiw.MP3
[2025-06-01T20:59:44.082914604] Audio extrahiert: /home/patrick/Nya/School-Big-Datas/MED/3.Klasse/5Min-Video-GitHub/katzen baum-30fps.mp4 als hduwehfiw.mp3
[2025-06-01T21:05:03.065338549] Einstellungen gespeichert
[2025-06-01T21:05:59.733861178] Directory loaded: /home/patrick/Nya/School-Big-Datas/MED/3.Klasse/5Min-Video-GitHub
[2025-06-01T21:06:26.249094401] Split: /home/patrick/Nya/School-Big-Datas/MED/3.Klasse/5Min-Video-GitHub/garten schalousie.mp4 -> 2 parts, name=output
[2025-06-01T21:15:44.125434884] Directory loaded: /home/patrick/Nya/School-Big-Datas/MED/3.Klasse/5Min-Video-GitHub
[2025-06-01T21:16:24.589491035] Directory loaded: /home/patrick/Nya/School-Big-Datas/MED/3.Klasse/5Min-Video-GitHub
[2025-06-01T21:16:40.580067684] Split: /home/patrick/Nya/School-Big-Datas/MED/3.Klasse/5Min-Video-GitHub/garten schalousie.mp4 -> 1 parts, name=output
[2025-06-01T21:16:51.541714278] Video gesplittet: /home/patrick/Nya/School-Big-Datas/MED/3.Klasse/5Min-Video-GitHub/garten schalousie.mp4 in 1 Teile, Name: output, Bitrate: auto, Auflösung: auto, Codec: copy, Geschwindigkeit: 1.0
[2025-06-01T21:17:01.605661604] Audio extrahiert: /home/patrick/Nya/School-Big-Datas/MED/3.Klasse/5Min-Video-GitHub/garten schalousie.mp4 als /home/patrick/Nya/output.mp3
[2025-06-01T21:22:48.190135273] Directory loaded: /home/patrick/Nya/School-Big-Datas/MED/3.Klasse/5Min-Video-GitHub
[2025-06-01T21:26:44.553857878] Directory loaded: /home/patrick/Nya/School-Big-Datas/MED/3.Klasse/5Min-Video-GitHub
[2025-06-01T21:28:36.689854136] Directory loaded: /home/patrick/Nya/School-Big-Datas/MED/3.Klasse/5Min-Video-GitHub
[2025-06-01T21:30:19.626194982] Split: /home/patrick/Nya/School-Big-Datas/MED/3.Klasse/5Min-Video-GitHub/garten schalousie-30fps.mp4 -> 4 parts, name=output
[2025-06-01T21:30:21.692361111] Video gesplittet: /home/patrick/Nya/School-Big-Datas/MED/3.Klasse/5Min-Video-GitHub/garten schalousie-30fps.mp4 in 4 Teile, Name: output, Bitrate: auto, Auflösung: 1920x1080, Codec: copy, Geschwindigkeit: 1.0
[2025-06-01T21:35:57.523974371] Directory loaded: /home/patrick/Nya/School-Big-Datas/MED/3.Klasse/5Min-Video-GitHub
[2025-06-01T21:36:28.570572194] Split: /home/patrick/Nya/School-Big-Datas/MED/3.Klasse/5Min-Video-GitHub/katzen baum-30fps.mp4 -> 7 parts, name=Bananensaft
[2025-06-01T21:36:29.984955889] Video gesplittet: /home/patrick/Nya/School-Big-Datas/MED/3.Klasse/5Min-Video-GitHub/katzen baum-30fps.mp4 in 7 Teile, Name: Bananensaft, OutputFormat: mp4, Bitrate: auto, Auflösung: auto, Codec: copy, Geschwindigkeit: 1.0
[2025-06-02T08:38:25.500893658] Directory loaded: /home/patrick/Nya/School-Big-Datas/MED/3.Klasse/5Min-Video-GitHub
[2025-06-02T08:39:22.804447917] Split: /home/patrick/Nya/School-Big-Datas/MED/3.Klasse/5Min-Video-GitHub/abgetrennte tür klinke-30fps.mp4 -> 7 parts, name=noga
[2025-06-02T08:44:37.699308157] Fehler beim Splitten: ffmpeg version 7.0.2 Copyright (c) 2000-2024 the FFmpeg developers
  built with gcc 14.2.0 (GCC)
  configuration: --prefix=/usr --libdir=/usr/lib/x86_64-linux-gnu --optflags='-O2 -pipe -g -Wp,-D_FORTIFY_SOURCE=3 -Wp,-D_GLIBCXX_ASSERTIONS -fexceptions -fstack-protector-strong -grecord-gcc-switches -fasynchronous-unwind-tables -fstack-clash-protection -fcf-protection -fno-omit-frame-pointer -mno-omit-leaf-frame-pointer ' --extra-ldflags='-Wl,-z,relro,-z,now -Wl,--as-needed ' --disable-stripping --disable-doc --disable-static --disable-encoders --disable-decoders --enable-shared --enable-gnutls --enable-gcrypt --enable-ladspa --enable-lcms2 --enable-libaom --enable-libdav1d --enable-libmp3lame --enable-libfontconfig --enable-libfreetype --enable-libfribidi --enable-libjxl --enable-libopus --enable-libpulse --enable-libspeex --enable-libtheora --enable-libvorbis --enable-libvpx --enable-librsvg --enable-libwebp --enable-libxml2 --enable-libopenjpeg --enable-libsvtav1 --enable-openal --enable-opengl --enable-sdl2 --enable-vulkan --enable-zlib --enable-libv4l2 --enable-libxcb --enable-vdpau --enable-vaapi --enable-pthreads --enable-libopenh264 --arch=x86_64 --enable-libfdk-aac --enable-encoder='a64multi,a64multi5,aac,libfdk_aac,ac3,adpcm_adx,adpcm_argo,adpcm_g722,adpcm_g726,adpcm_g726le,adpcm_ima_alp,adpcm_ima_amv,adpcm_ima_apm,adpcm_ima_qt,adpcm_ima_ssi,adpcm_ima_wav,adpcm_ima_ws,adpcm_ms,adpcm_swf,adpcm_yamaha,alac,alias_pix,amv,anull,apng,ass,asv1,asv2,av1_amf,av1_nvenc,av1_qsv,av1_vaapi,bitpacked,bmp,cinepak,cljr,dca,dfpwm,dnxhd,dpx,dvbsub,dvdsub,dvvideo,exr,ffv1,ffvhuff,flac,flashsv,flashsv2,flv,g723_1,gif,h261,h263,h263_v4l2m2m,h263p,h264_amf,h264_nvenc,h264_qsv,h264_v4l2m2m,h264_vaapi,hap,hdr,hevc_amf,hevc_nvenc,hevc_qsv,hevc_v4l2m2m,hevc_vaapi,huffyuv,ilbc,jpeg2000,jpegls,libaom,libaom_av1,libcodec2,libgsm,libgsm_ms,libilbc,libjxl,libmp3lame,libopencore_amrnb,libopenh264,libopenjpeg,libopus,librav1e,libspeex,libsvtav1,libtheora,libtwolame,libvo_amrwbenc,libvorbis,libvpx_vp8,libvpx_vp9,libwebp,libwebp_anim,libxvid,mjpeg,mjpeg_qsv,mjpeg_vaapi,mlp,mp2,mp2fixed,mpeg1video,mpeg2_qsv,mpeg2_vaapi,mpeg2video,mpeg4,mpeg4_v4l2m2m,msmpeg4v2,msmpeg4v3,msvideo1,nellymoser,opus,pam,pbm,pcm_alaw,pcm_f32be,pcm_f32le,pcm_f64be,pcm_f64le,pcm_mulaw,pcm_s16be,pcm_s16be_planar,pcm_s16le,pcm_s16le_planar,pcm_s24be,pcm_s24le,pcm_s24le_planar,pcm_s32be,pcm_s32le,pcm_s32le_planar,pcm_s8,pcm_s8_planar,pcm_u16be,pcm_u16le,pcm_u24be,pcm_u24le,pcm_u32be,pcm_u32le,pcm_u8,pcx,pgm,pgmyuv,phm,png,ppm,qoi,qtrle,r10k,r210,ra_144,rawvideo,roq,roq_dpcm,rpza,rv10,rv20,s302m,sbc,sgi,smc,snow,sonic,sonic_ls,speedhq,srt,ssa,subrip,sunrast,svq1,targa,text,tiff,truehd,tta,ttml,utvideo,v210,v308,v408,v410,vc1_qsv,vc1_v4l2m2m,vc2,vnull,vorbis,vp8_qsv,vp8_v4l2m2m,vp8_vaapi,vp9_qsv,vp9_vaapi,wavpack,wbmp,webvtt,wmav1,wmav2,wmv1,wmv2,wrapped_avframe,xbm,xface,xsub,xwd,y41p,yuv4,zlib,zmbv,' --enable-decoder='aasc,libfdk_aac,ac3,acelp_kelvin,adpcm_4xm,adpcm_adx,adpcm_afc,adpcm_agm,adpcm_aica,adpcm_argo,adpcm_ct,adpcm_dtk,adpcm_ea,adpcm_ea_maxis_xa,adpcm_ea_r1,adpcm_ea_r2,adpcm_ea_r3,adpcm_ea_xas,adpcm_g722,adpcm_g726,adpcm_g726le,adpcm_ima_acorn,adpcm_ima_alp,adpcm_ima_amv,adpcm_ima_apc,adpcm_ima_apm,adpcm_ima_cunning,adpcm_ima_dat4,adpcm_ima_dk3,adpcm_ima_dk4,adpcm_ima_ea_eacs,adpcm_ima_ea_sead,adpcm_ima_iss,adpcm_ima_moflex,adpcm_ima_mtf,adpcm_ima_oki,adpcm_ima_qt,adpcm_ima_qt_at,adpcm_ima_rad,adpcm_ima_smjpeg,adpcm_ima_ssi,adpcm_ima_wav,adpcm_ima_ws,adpcm_ms,adpcm_mtaf,adpcm_psx,adpcm_sbpro_2,adpcm_sbpro_3,adpcm_sbpro_4,adpcm_swf,adpcm_thp,adpcm_thp_le,adpcm_vima,adpcm_xa,adpcm_xmd,adpcm_yamaha,adpcm_zork,alac,alias_pix,amrnb,amrwb,amv,anm,ansi,anull,apac,ape,apng,arbc,argo,ass,asv1,asv2,atrac1,atrac3,atrac3al,atrac3p,atrac3pal,aura,aura2,av1,av1_qsv,bethsoftvid,bfi,bink,binkaudio_dct,binkaudio_rdft,bintext,bitpacked,bmp,bmv_audio,bmv_video,bonk,brender_pix,c93,cbd2_dpcm,ccaption,cdgraphics,cdtoons,cdxl,cinepak,clearvideo,cljr,cook,cpia,cscd,cyuv,dca,dds,derf_dpcm,dfa,dfpwm,dirac,dnxhd,dolby_e,dpx,dsd_lsbf,dsd_msbf,dsicinaudio,dsicinvideo,dss_sp,dvaudio,dvbsub,dvdsub,dvvideo,dxa,dxtory,eacmv,eamad,eatgq,eatgv,eatqi,eightbps,eightsvx_exp,eightsvx_fib,escape124,escape130,evrc,exr,ffv1,ffvhuff,ffwavesynth,fits,flac,flashsv,flashsv2,flic,flv,fmvc,fourxm,ftr,g723_1,g729,gdv,gem,gif,gremlin_dpcm,gsm,gsm_ms,gsm_ms_at,h261,h263,h263_v4l2m2m,h263i,h263p,hap,hca,hcom,hdr,hnm4_video,hq_hqa,hqx,huffyuv,hymt,iac,idcin,idf,iff_ilbm,ilbc,imc,indeo2,indeo3,indeo4,indeo5,interplay_acm,interplay_dpcm,interplay_video,ipu,jacosub,jpeg2000,jpegls,jv,kgv1,kmvc,lagarith,libaom,libaom_av1,libcodec2,libdav1d,libgsm,libgsm_ms,libilbc,libjxl,libopencore_amrnb,libopencore_amrwb,libopenh264,libopenjpeg,libopus,librsvg,libschroedinger,libspeex,libvorbis,libvpx_vp8,libvpx_vp9,libzvbi_teletext,loco,lscr,m101,mace3,mace6,mdec,media100,metasound,microdvd,mimic,misc4,mjpeg,mjpeg_qsv,mjpegb,mlp,mmvideo,motionpixels,mp1,mp1float,mp2,mp2float,mp3,mp3adu,mp3adufloat,mp3float,mp3on4,mp3on4float,mpc7,mpc8,mpeg1_v4l2m2m,mpeg1video,mpeg2_qsv,mpeg2_v4l2m2m,mpeg2video,mpeg4,mpeg4_v4l2m2m,mpegvideo,mpl2,msa1,mscc,msmpeg4v1,msmpeg4v2,msmpeg4v3,msnsiren,msp2,msrle,mss1,mss2,msvideo1,mszh,mts2,mv30,mvc1,mvc2,mvdv,mvha,mwsc,mxpeg,nellymoser,nuv,on2avc,opus,paf_audio,paf_video,pam,pbm,pcm_alaw,pcm_bluray,pcm_dvd,pcm_f16le,pcm_f24le,pcm_f32be,pcm_f32le,pcm_f64be,pcm_f64le,pcm_lxf,pcm_mulaw,pcm_s16be,pcm_s16be_planar,pcm_s16le,pcm_s16le_planar,pcm_s24be,pcm_s24daud,pcm_s24le,pcm_s24le_planar,pcm_s32be,pcm_s32le,pcm_s32le_planar,pcm_s64be,pcm_s64le,pcm_s8,pcm_s8_planar,pcm_sga,pcm_u16be,pcm_u16le,pcm_u24be,pcm_u24le,pcm_u32be,pcm_u32le,pcm_u8,pcm_vidc,pcx,pfm,pgm,pgmyuv,pgssub,pgx,phm,photocd,pictor,pjs,png,ppm,prosumer,psd,ptx,qcelp,qdm2,qdmc,qdraw,qoa,qoi,qpeg,qtrle,r10k,r210,ra_144,ra_288,rasc,rawvideo,realtext,rka,rl2,roq,roq_dpcm,rpza,rscc,rv10,rv20,s302m,sami,sanm,sbc,screenpresso,sdx2_dpcm,sgi,sgirle,shorten,simbiosis_imx,sipr,siren,smackaud,smacker,smc,smvjpeg,snow,sol_dpcm,sonic,sp5x,speedhq,speex,srgc,srt,ssa,stl,subrip,subviewer,subviewer1,sunrast,svq1,svq3,tak,targa,targa_y216,tdsc,text,theora,thp,tiertexseqvideo,tiff,tmv,truehd,truemotion1,truemotion2,truemotion2rt,truespeech,tscc,tscc2,tta,twinvq,txd,ulti,utvideo,v210,v210x,v308,v408,v410,vb,vble,vcr1,vmdaudio,vmdvideo,vmnc,vnull,vorbis,vp3,vp4,vp5,vp6,vp6a,vp6f,vp7,vp8,vp8_qsv,vp8_v4l2m2m,vp9,vp9_qsv,vp9_v4l2m2m,vplayer,vqa,vqc,wady_dpcm,wavarc,wavpack,wbmp,wcmv,webp,webvtt,wmav1,wmav2,wmavoice,wmv1,wmv2,wnv1,wrapped_avframe,ws_snd1,xan_dpcm,xan_wc3,xan_wc4,xbin,xbm,xface,xl,xpm,xsub,xwd,y41p,ylc,yop,yuv4,zero12v,zerocodec,zlib,zmbv,' --disable-decoder='h264,hevc,vc1,vvc'
  libavutil      59.  8.100 / 59.  8.100
  libavcodec     61.  3.100 / 61.  3.100
  libavformat    61.  1.100 / 61.  1.100
  libavdevice    61.  1.100 / 61.  1.100
  libavfilter    10.  1.100 / 10.  1.100
  libswscale      8.  1.100 /  8.  1.100
  libswresample   5.  1.100 /  5.  1.100
Input #0, mov,mp4,m4a,3gp,3g2,mj2, from '/home/patrick/Nya/School-Big-Datas/MED/3.Klasse/5Min-Video-GitHub/abgetrennte tür klinke-30fps.mp4':
  Metadata:
    major_brand     : isom
    minor_version   : 512
    compatible_brands: isomiso2avc1mp41
    encoder         : Lavf61.7.100
  Duration: 00:00:11.47, start: 0.000000, bitrate: 2767 kb/s
  Stream #0:0[0x1](und): Video: h264 (libopenh264) (High) (avc1 / 0x31637661), yuv420p(tv, bt470bg/bt470bg/smpte170m, progressive), 848x478, 2511 kb/s, 30 fps, 30 tbr, 15360 tbn (default)
      Metadata:
        handler_name    : VideoHandler
        vendor_id       : [0][0][0][0]
        encoder         : Lavc61.19.101 h264_vaapi
  Stream #0:1[0x2](und): Audio: aac (libfdk_aac) (mp4a / 0x6134706D), 48000 Hz, stereo, s16, 250 kb/s (default)
      Metadata:
        handler_name    : SoundHandler
        vendor_id       : [0][0][0][0]
[vost#0:0 @ 0x557d3edf87c0] Unknown encoder 'libx264'
[vost#0:0 @ 0x557d3edf87c0] Error selecting an encoder
Error opening output file noga_part%03d.mkv.
Error opening output files: Encoder not found

[2025-06-02T08:45:14.280015269] Directory loaded: /home/patrick/Nya/School-Big-Datas/MED/3.Klasse/5Min-Video-GitHub
[2025-06-02T08:45:34.939891459] Directory loaded: /home/patrick/Nya/School-Big-Datas/MED/3.Klasse/5Min-Video-GitHub
[2025-06-02T08:46:14.325122335] Split: /home/patrick/Nya/School-Big-Datas/MED/3.Klasse/5Min-Video-GitHub/kaktus von links nach rechts-30fps.mp4 -> 7 parts, name=noga
[2025-06-02T08:47:17.868318521] Fehler beim Splitten: ffmpeg version 7.0.2 Copyright (c) 2000-2024 the FFmpeg developers
  built with gcc 14.2.0 (GCC)
  configuration: --prefix=/usr --libdir=/usr/lib/x86_64-linux-gnu --optflags='-O2 -pipe -g -Wp,-D_FORTIFY_SOURCE=3 -Wp,-D_GLIBCXX_ASSERTIONS -fexceptions -fstack-protector-strong -grecord-gcc-switches -fasynchronous-unwind-tables -fstack-clash-protection -fcf-protection -fno-omit-frame-pointer -mno-omit-leaf-frame-pointer ' --extra-ldflags='-Wl,-z,relro,-z,now -Wl,--as-needed ' --disable-stripping --disable-doc --disable-static --disable-encoders --disable-decoders --enable-shared --enable-gnutls --enable-gcrypt --enable-ladspa --enable-lcms2 --enable-libaom --enable-libdav1d --enable-libmp3lame --enable-libfontconfig --enable-libfreetype --enable-libfribidi --enable-libjxl --enable-libopus --enable-libpulse --enable-libspeex --enable-libtheora --enable-libvorbis --enable-libvpx --enable-librsvg --enable-libwebp --enable-libxml2 --enable-libopenjpeg --enable-libsvtav1 --enable-openal --enable-opengl --enable-sdl2 --enable-vulkan --enable-zlib --enable-libv4l2 --enable-libxcb --enable-vdpau --enable-vaapi --enable-pthreads --enable-libopenh264 --arch=x86_64 --enable-libfdk-aac --enable-encoder='a64multi,a64multi5,aac,libfdk_aac,ac3,adpcm_adx,adpcm_argo,adpcm_g722,adpcm_g726,adpcm_g726le,adpcm_ima_alp,adpcm_ima_amv,adpcm_ima_apm,adpcm_ima_qt,adpcm_ima_ssi,adpcm_ima_wav,adpcm_ima_ws,adpcm_ms,adpcm_swf,adpcm_yamaha,alac,alias_pix,amv,anull,apng,ass,asv1,asv2,av1_amf,av1_nvenc,av1_qsv,av1_vaapi,bitpacked,bmp,cinepak,cljr,dca,dfpwm,dnxhd,dpx,dvbsub,dvdsub,dvvideo,exr,ffv1,ffvhuff,flac,flashsv,flashsv2,flv,g723_1,gif,h261,h263,h263_v4l2m2m,h263p,h264_amf,h264_nvenc,h264_qsv,h264_v4l2m2m,h264_vaapi,hap,hdr,hevc_amf,hevc_nvenc,hevc_qsv,hevc_v4l2m2m,hevc_vaapi,huffyuv,ilbc,jpeg2000,jpegls,libaom,libaom_av1,libcodec2,libgsm,libgsm_ms,libilbc,libjxl,libmp3lame,libopencore_amrnb,libopenh264,libopenjpeg,libopus,librav1e,libspeex,libsvtav1,libtheora,libtwolame,libvo_amrwbenc,libvorbis,libvpx_vp8,libvpx_vp9,libwebp,libwebp_anim,libxvid,mjpeg,mjpeg_qsv,mjpeg_vaapi,mlp,mp2,mp2fixed,mpeg1video,mpeg2_qsv,mpeg2_vaapi,mpeg2video,mpeg4,mpeg4_v4l2m2m,msmpeg4v2,msmpeg4v3,msvideo1,nellymoser,opus,pam,pbm,pcm_alaw,pcm_f32be,pcm_f32le,pcm_f64be,pcm_f64le,pcm_mulaw,pcm_s16be,pcm_s16be_planar,pcm_s16le,pcm_s16le_planar,pcm_s24be,pcm_s24le,pcm_s24le_planar,pcm_s32be,pcm_s32le,pcm_s32le_planar,pcm_s8,pcm_s8_planar,pcm_u16be,pcm_u16le,pcm_u24be,pcm_u24le,pcm_u32be,pcm_u32le,pcm_u8,pcx,pgm,pgmyuv,phm,png,ppm,qoi,qtrle,r10k,r210,ra_144,rawvideo,roq,roq_dpcm,rpza,rv10,rv20,s302m,sbc,sgi,smc,snow,sonic,sonic_ls,speedhq,srt,ssa,subrip,sunrast,svq1,targa,text,tiff,truehd,tta,ttml,utvideo,v210,v308,v408,v410,vc1_qsv,vc1_v4l2m2m,vc2,vnull,vorbis,vp8_qsv,vp8_v4l2m2m,vp8_vaapi,vp9_qsv,vp9_vaapi,wavpack,wbmp,webvtt,wmav1,wmav2,wmv1,wmv2,wrapped_avframe,xbm,xface,xsub,xwd,y41p,yuv4,zlib,zmbv,' --enable-decoder='aasc,libfdk_aac,ac3,acelp_kelvin,adpcm_4xm,adpcm_adx,adpcm_afc,adpcm_agm,adpcm_aica,adpcm_argo,adpcm_ct,adpcm_dtk,adpcm_ea,adpcm_ea_maxis_xa,adpcm_ea_r1,adpcm_ea_r2,adpcm_ea_r3,adpcm_ea_xas,adpcm_g722,adpcm_g726,adpcm_g726le,adpcm_ima_acorn,adpcm_ima_alp,adpcm_ima_amv,adpcm_ima_apc,adpcm_ima_apm,adpcm_ima_cunning,adpcm_ima_dat4,adpcm_ima_dk3,adpcm_ima_dk4,adpcm_ima_ea_eacs,adpcm_ima_ea_sead,adpcm_ima_iss,adpcm_ima_moflex,adpcm_ima_mtf,adpcm_ima_oki,adpcm_ima_qt,adpcm_ima_qt_at,adpcm_ima_rad,adpcm_ima_smjpeg,adpcm_ima_ssi,adpcm_ima_wav,adpcm_ima_ws,adpcm_ms,adpcm_mtaf,adpcm_psx,adpcm_sbpro_2,adpcm_sbpro_3,adpcm_sbpro_4,adpcm_swf,adpcm_thp,adpcm_thp_le,adpcm_vima,adpcm_xa,adpcm_xmd,adpcm_yamaha,adpcm_zork,alac,alias_pix,amrnb,amrwb,amv,anm,ansi,anull,apac,ape,apng,arbc,argo,ass,asv1,asv2,atrac1,atrac3,atrac3al,atrac3p,atrac3pal,aura,aura2,av1,av1_qsv,bethsoftvid,bfi,bink,binkaudio_dct,binkaudio_rdft,bintext,bitpacked,bmp,bmv_audio,bmv_video,bonk,brender_pix,c93,cbd2_dpcm,ccaption,cdgraphics,cdtoons,cdxl,cinepak,clearvideo,cljr,cook,cpia,cscd,cyuv,dca,dds,derf_dpcm,dfa,dfpwm,dirac,dnxhd,dolby_e,dpx,dsd_lsbf,dsd_msbf,dsicinaudio,dsicinvideo,dss_sp,dvaudio,dvbsub,dvdsub,dvvideo,dxa,dxtory,eacmv,eamad,eatgq,eatgv,eatqi,eightbps,eightsvx_exp,eightsvx_fib,escape124,escape130,evrc,exr,ffv1,ffvhuff,ffwavesynth,fits,flac,flashsv,flashsv2,flic,flv,fmvc,fourxm,ftr,g723_1,g729,gdv,gem,gif,gremlin_dpcm,gsm,gsm_ms,gsm_ms_at,h261,h263,h263_v4l2m2m,h263i,h263p,hap,hca,hcom,hdr,hnm4_video,hq_hqa,hqx,huffyuv,hymt,iac,idcin,idf,iff_ilbm,ilbc,imc,indeo2,indeo3,indeo4,indeo5,interplay_acm,interplay_dpcm,interplay_video,ipu,jacosub,jpeg2000,jpegls,jv,kgv1,kmvc,lagarith,libaom,libaom_av1,libcodec2,libdav1d,libgsm,libgsm_ms,libilbc,libjxl,libopencore_amrnb,libopencore_amrwb,libopenh264,libopenjpeg,libopus,librsvg,libschroedinger,libspeex,libvorbis,libvpx_vp8,libvpx_vp9,libzvbi_teletext,loco,lscr,m101,mace3,mace6,mdec,media100,metasound,microdvd,mimic,misc4,mjpeg,mjpeg_qsv,mjpegb,mlp,mmvideo,motionpixels,mp1,mp1float,mp2,mp2float,mp3,mp3adu,mp3adufloat,mp3float,mp3on4,mp3on4float,mpc7,mpc8,mpeg1_v4l2m2m,mpeg1video,mpeg2_qsv,mpeg2_v4l2m2m,mpeg2video,mpeg4,mpeg4_v4l2m2m,mpegvideo,mpl2,msa1,mscc,msmpeg4v1,msmpeg4v2,msmpeg4v3,msnsiren,msp2,msrle,mss1,mss2,msvideo1,mszh,mts2,mv30,mvc1,mvc2,mvdv,mvha,mwsc,mxpeg,nellymoser,nuv,on2avc,opus,paf_audio,paf_video,pam,pbm,pcm_alaw,pcm_bluray,pcm_dvd,pcm_f16le,pcm_f24le,pcm_f32be,pcm_f32le,pcm_f64be,pcm_f64le,pcm_lxf,pcm_mulaw,pcm_s16be,pcm_s16be_planar,pcm_s16le,pcm_s16le_planar,pcm_s24be,pcm_s24daud,pcm_s24le,pcm_s24le_planar,pcm_s32be,pcm_s32le,pcm_s32le_planar,pcm_s64be,pcm_s64le,pcm_s8,pcm_s8_planar,pcm_sga,pcm_u16be,pcm_u16le,pcm_u24be,pcm_u24le,pcm_u32be,pcm_u32le,pcm_u8,pcm_vidc,pcx,pfm,pgm,pgmyuv,pgssub,pgx,phm,photocd,pictor,pjs,png,ppm,prosumer,psd,ptx,qcelp,qdm2,qdmc,qdraw,qoa,qoi,qpeg,qtrle,r10k,r210,ra_144,ra_288,rasc,rawvideo,realtext,rka,rl2,roq,roq_dpcm,rpza,rscc,rv10,rv20,s302m,sami,sanm,sbc,screenpresso,sdx2_dpcm,sgi,sgirle,shorten,simbiosis_imx,sipr,siren,smackaud,smacker,smc,smvjpeg,snow,sol_dpcm,sonic,sp5x,speedhq,speex,srgc,srt,ssa,stl,subrip,subviewer,subviewer1,sunrast,svq1,svq3,tak,targa,targa_y216,tdsc,text,theora,thp,tiertexseqvideo,tiff,tmv,truehd,truemotion1,truemotion2,truemotion2rt,truespeech,tscc,tscc2,tta,twinvq,txd,ulti,utvideo,v210,v210x,v308,v408,v410,vb,vble,vcr1,vmdaudio,vmdvideo,vmnc,vnull,vorbis,vp3,vp4,vp5,vp6,vp6a,vp6f,vp7,vp8,vp8_qsv,vp8_v4l2m2m,vp9,vp9_qsv,vp9_v4l2m2m,vplayer,vqa,vqc,wady_dpcm,wavarc,wavpack,wbmp,wcmv,webp,webvtt,wmav1,wmav2,wmavoice,wmv1,wmv2,wnv1,wrapped_avframe,ws_snd1,xan_dpcm,xan_wc3,xan_wc4,xbin,xbm,xface,xl,xpm,xsub,xwd,y41p,ylc,yop,yuv4,zero12v,zerocodec,zlib,zmbv,' --disable-decoder='h264,hevc,vc1,vvc'
  libavutil      59.  8.100 / 59.  8.100
  libavcodec     61.  3.100 / 61.  3.100
  libavformat    61.  1.100 / 61.  1.100
  libavdevice    61.  1.100 / 61.  1.100
  libavfilter    10.  1.100 / 10.  1.100
  libswscale      8.  1.100 /  8.  1.100
  libswresample   5.  1.100 /  5.  1.100
Input #0, mov,mp4,m4a,3gp,3g2,mj2, from '/home/patrick/Nya/School-Big-Datas/MED/3.Klasse/5Min-Video-GitHub/kaktus von links nach rechts-30fps.mp4':
  Metadata:
    major_brand     : isom
    minor_version   : 512
    compatible_brands: isomiso2avc1mp41
    encoder         : Lavf61.7.100
  Duration: 00:00:06.53, start: 0.000000, bitrate: 9513 kb/s
  Stream #0:0[0x1](und): Video: h264 (libopenh264) (High) (avc1 / 0x31637661), yuv420p(tv, bt470bg/bt470bg/smpte170m, progressive), 848x478, 9510 kb/s, 30 fps, 30 tbr, 15360 tbn (default)
      Metadata:
        handler_name    : VideoHandler
        vendor_id       : [0][0][0][0]
        encoder         : Lavc61.19.101 libx264
[vost#0:0/copy @ 0x563e0ff1d5c0] Filtergraph 'setpts=0.833333*PTS' was specified, but codec copy was selected. Filtering and streamcopy cannot be used together.
Error opening output file noga_part%03d.mp4.
Error opening output files: Function not implemented

[2025-06-02T08:49:31.573241498] Directory loaded: /home/patrick/Nya/School-Big-Datas/MED/3.Klasse/5Min-Video-GitHub
[2025-06-02T08:55:11.365455255] Directory loaded: /home/patrick/Nya/School-Big-Datas/MED/3.Klasse/5Min-Video-GitHub
[2025-06-02T08:55:18.970488191] Split: /home/patrick/Nya/School-Big-Datas/MED/3.Klasse/5Min-Video-GitHub/paket transporter-30fps.mp4 -> 7 parts, name=noga
[2025-06-02T09:18:55.437738380] Fehler beim Splitten: ffmpeg version 7.0.2 Copyright (c) 2000-2024 the FFmpeg developers
  built with gcc 14.2.0 (GCC)
  configuration: --prefix=/usr --libdir=/usr/lib/x86_64-linux-gnu --optflags='-O2 -pipe -g -Wp,-D_FORTIFY_SOURCE=3 -Wp,-D_GLIBCXX_ASSERTIONS -fexceptions -fstack-protector-strong -grecord-gcc-switches -fasynchronous-unwind-tables -fstack-clash-protection -fcf-protection -fno-omit-frame-pointer -mno-omit-leaf-frame-pointer ' --extra-ldflags='-Wl,-z,relro,-z,now -Wl,--as-needed ' --disable-stripping --disable-doc --disable-static --disable-encoders --disable-decoders --enable-shared --enable-gnutls --enable-gcrypt --enable-ladspa --enable-lcms2 --enable-libaom --enable-libdav1d --enable-libmp3lame --enable-libfontconfig --enable-libfreetype --enable-libfribidi --enable-libjxl --enable-libopus --enable-libpulse --enable-libspeex --enable-libtheora --enable-libvorbis --enable-libvpx --enable-librsvg --enable-libwebp --enable-libxml2 --enable-libopenjpeg --enable-libsvtav1 --enable-openal --enable-opengl --enable-sdl2 --enable-vulkan --enable-zlib --enable-libv4l2 --enable-libxcb --enable-vdpau --enable-vaapi --enable-pthreads --enable-libopenh264 --arch=x86_64 --enable-libfdk-aac --enable-encoder='a64multi,a64multi5,aac,libfdk_aac,ac3,adpcm_adx,adpcm_argo,adpcm_g722,adpcm_g726,adpcm_g726le,adpcm_ima_alp,adpcm_ima_amv,adpcm_ima_apm,adpcm_ima_qt,adpcm_ima_ssi,adpcm_ima_wav,adpcm_ima_ws,adpcm_ms,adpcm_swf,adpcm_yamaha,alac,alias_pix,amv,anull,apng,ass,asv1,asv2,av1_amf,av1_nvenc,av1_qsv,av1_vaapi,bitpacked,bmp,cinepak,cljr,dca,dfpwm,dnxhd,dpx,dvbsub,dvdsub,dvvideo,exr,ffv1,ffvhuff,flac,flashsv,flashsv2,flv,g723_1,gif,h261,h263,h263_v4l2m2m,h263p,h264_amf,h264_nvenc,h264_qsv,h264_v4l2m2m,h264_vaapi,hap,hdr,hevc_amf,hevc_nvenc,hevc_qsv,hevc_v4l2m2m,hevc_vaapi,huffyuv,ilbc,jpeg2000,jpegls,libaom,libaom_av1,libcodec2,libgsm,libgsm_ms,libilbc,libjxl,libmp3lame,libopencore_amrnb,libopenh264,libopenjpeg,libopus,librav1e,libspeex,libsvtav1,libtheora,libtwolame,libvo_amrwbenc,libvorbis,libvpx_vp8,libvpx_vp9,libwebp,libwebp_anim,libxvid,mjpeg,mjpeg_qsv,mjpeg_vaapi,mlp,mp2,mp2fixed,mpeg1video,mpeg2_qsv,mpeg2_vaapi,mpeg2video,mpeg4,mpeg4_v4l2m2m,msmpeg4v2,msmpeg4v3,msvideo1,nellymoser,opus,pam,pbm,pcm_alaw,pcm_f32be,pcm_f32le,pcm_f64be,pcm_f64le,pcm_mulaw,pcm_s16be,pcm_s16be_planar,pcm_s16le,pcm_s16le_planar,pcm_s24be,pcm_s24le,pcm_s24le_planar,pcm_s32be,pcm_s32le,pcm_s32le_planar,pcm_s8,pcm_s8_planar,pcm_u16be,pcm_u16le,pcm_u24be,pcm_u24le,pcm_u32be,pcm_u32le,pcm_u8,pcx,pgm,pgmyuv,phm,png,ppm,qoi,qtrle,r10k,r210,ra_144,rawvideo,roq,roq_dpcm,rpza,rv10,rv20,s302m,sbc,sgi,smc,snow,sonic,sonic_ls,speedhq,srt,ssa,subrip,sunrast,svq1,targa,text,tiff,truehd,tta,ttml,utvideo,v210,v308,v408,v410,vc1_qsv,vc1_v4l2m2m,vc2,vnull,vorbis,vp8_qsv,vp8_v4l2m2m,vp8_vaapi,vp9_qsv,vp9_vaapi,wavpack,wbmp,webvtt,wmav1,wmav2,wmv1,wmv2,wrapped_avframe,xbm,xface,xsub,xwd,y41p,yuv4,zlib,zmbv,' --enable-decoder='aasc,libfdk_aac,ac3,acelp_kelvin,adpcm_4xm,adpcm_adx,adpcm_afc,adpcm_agm,adpcm_aica,adpcm_argo,adpcm_ct,adpcm_dtk,adpcm_ea,adpcm_ea_maxis_xa,adpcm_ea_r1,adpcm_ea_r2,adpcm_ea_r3,adpcm_ea_xas,adpcm_g722,adpcm_g726,adpcm_g726le,adpcm_ima_acorn,adpcm_ima_alp,adpcm_ima_amv,adpcm_ima_apc,adpcm_ima_apm,adpcm_ima_cunning,adpcm_ima_dat4,adpcm_ima_dk3,adpcm_ima_dk4,adpcm_ima_ea_eacs,adpcm_ima_ea_sead,adpcm_ima_iss,adpcm_ima_moflex,adpcm_ima_mtf,adpcm_ima_oki,adpcm_ima_qt,adpcm_ima_qt_at,adpcm_ima_rad,adpcm_ima_smjpeg,adpcm_ima_ssi,adpcm_ima_wav,adpcm_ima_ws,adpcm_ms,adpcm_mtaf,adpcm_psx,adpcm_sbpro_2,adpcm_sbpro_3,adpcm_sbpro_4,adpcm_swf,adpcm_thp,adpcm_thp_le,adpcm_vima,adpcm_xa,adpcm_xmd,adpcm_yamaha,adpcm_zork,alac,alias_pix,amrnb,amrwb,amv,anm,ansi,anull,apac,ape,apng,arbc,argo,ass,asv1,asv2,atrac1,atrac3,atrac3al,atrac3p,atrac3pal,aura,aura2,av1,av1_qsv,bethsoftvid,bfi,bink,binkaudio_dct,binkaudio_rdft,bintext,bitpacked,bmp,bmv_audio,bmv_video,bonk,brender_pix,c93,cbd2_dpcm,ccaption,cdgraphics,cdtoons,cdxl,cinepak,clearvideo,cljr,cook,cpia,cscd,cyuv,dca,dds,derf_dpcm,dfa,dfpwm,dirac,dnxhd,dolby_e,dpx,dsd_lsbf,dsd_msbf,dsicinaudio,dsicinvideo,dss_sp,dvaudio,dvbsub,dvdsub,dvvideo,dxa,dxtory,eacmv,eamad,eatgq,eatgv,eatqi,eightbps,eightsvx_exp,eightsvx_fib,escape124,escape130,evrc,exr,ffv1,ffvhuff,ffwavesynth,fits,flac,flashsv,flashsv2,flic,flv,fmvc,fourxm,ftr,g723_1,g729,gdv,gem,gif,gremlin_dpcm,gsm,gsm_ms,gsm_ms_at,h261,h263,h263_v4l2m2m,h263i,h263p,hap,hca,hcom,hdr,hnm4_video,hq_hqa,hqx,huffyuv,hymt,iac,idcin,idf,iff_ilbm,ilbc,imc,indeo2,indeo3,indeo4,indeo5,interplay_acm,interplay_dpcm,interplay_video,ipu,jacosub,jpeg2000,jpegls,jv,kgv1,kmvc,lagarith,libaom,libaom_av1,libcodec2,libdav1d,libgsm,libgsm_ms,libilbc,libjxl,libopencore_amrnb,libopencore_amrwb,libopenh264,libopenjpeg,libopus,librsvg,libschroedinger,libspeex,libvorbis,libvpx_vp8,libvpx_vp9,libzvbi_teletext,loco,lscr,m101,mace3,mace6,mdec,media100,metasound,microdvd,mimic,misc4,mjpeg,mjpeg_qsv,mjpegb,mlp,mmvideo,motionpixels,mp1,mp1float,mp2,mp2float,mp3,mp3adu,mp3adufloat,mp3float,mp3on4,mp3on4float,mpc7,mpc8,mpeg1_v4l2m2m,mpeg1video,mpeg2_qsv,mpeg2_v4l2m2m,mpeg2video,mpeg4,mpeg4_v4l2m2m,mpegvideo,mpl2,msa1,mscc,msmpeg4v1,msmpeg4v2,msmpeg4v3,msnsiren,msp2,msrle,mss1,mss2,msvideo1,mszh,mts2,mv30,mvc1,mvc2,mvdv,mvha,mwsc,mxpeg,nellymoser,nuv,on2avc,opus,paf_audio,paf_video,pam,pbm,pcm_alaw,pcm_bluray,pcm_dvd,pcm_f16le,pcm_f24le,pcm_f32be,pcm_f32le,pcm_f64be,pcm_f64le,pcm_lxf,pcm_mulaw,pcm_s16be,pcm_s16be_planar,pcm_s16le,pcm_s16le_planar,pcm_s24be,pcm_s24daud,pcm_s24le,pcm_s24le_planar,pcm_s32be,pcm_s32le,pcm_s32le_planar,pcm_s64be,pcm_s64le,pcm_s8,pcm_s8_planar,pcm_sga,pcm_u16be,pcm_u16le,pcm_u24be,pcm_u24le,pcm_u32be,pcm_u32le,pcm_u8,pcm_vidc,pcx,pfm,pgm,pgmyuv,pgssub,pgx,phm,photocd,pictor,pjs,png,ppm,prosumer,psd,ptx,qcelp,qdm2,qdmc,qdraw,qoa,qoi,qpeg,qtrle,r10k,r210,ra_144,ra_288,rasc,rawvideo,realtext,rka,rl2,roq,roq_dpcm,rpza,rscc,rv10,rv20,s302m,sami,sanm,sbc,screenpresso,sdx2_dpcm,sgi,sgirle,shorten,simbiosis_imx,sipr,siren,smackaud,smacker,smc,smvjpeg,snow,sol_dpcm,sonic,sp5x,speedhq,speex,srgc,srt,ssa,stl,subrip,subviewer,subviewer1,sunrast,svq1,svq3,tak,targa,targa_y216,tdsc,text,theora,thp,tiertexseqvideo,tiff,tmv,truehd,truemotion1,truemotion2,truemotion2rt,truespeech,tscc,tscc2,tta,twinvq,txd,ulti,utvideo,v210,v210x,v308,v408,v410,vb,vble,vcr1,vmdaudio,vmdvideo,vmnc,vnull,vorbis,vp3,vp4,vp5,vp6,vp6a,vp6f,vp7,vp8,vp8_qsv,vp8_v4l2m2m,vp9,vp9_qsv,vp9_v4l2m2m,vplayer,vqa,vqc,wady_dpcm,wavarc,wavpack,wbmp,wcmv,webp,webvtt,wmav1,wmav2,wmavoice,wmv1,wmv2,wnv1,wrapped_avframe,ws_snd1,xan_dpcm,xan_wc3,xan_wc4,xbin,xbm,xface,xl,xpm,xsub,xwd,y41p,ylc,yop,yuv4,zero12v,zerocodec,zlib,zmbv,' --disable-decoder='h264,hevc,vc1,vvc'
  libavutil      59.  8.100 / 59.  8.100
  libavcodec     61.  3.100 / 61.  3.100
  libavformat    61.  1.100 / 61.  1.100
  libavdevice    61.  1.100 / 61.  1.100
  libavfilter    10.  1.100 / 10.  1.100
  libswscale      8.  1.100 /  8.  1.100
  libswresample   5.  1.100 /  5.  1.100
Input #0, mov,mp4,m4a,3gp,3g2,mj2, from '/home/patrick/Nya/School-Big-Datas/MED/3.Klasse/5Min-Video-GitHub/paket transporter-30fps.mp4':
  Metadata:
    major_brand     : isom
    minor_version   : 512
    compatible_brands: isomiso2avc1mp41
    encoder         : Lavf61.7.100
  Duration: 00:00:08.13, start: 0.000000, bitrate: 8942 kb/s
  Stream #0:0[0x1](und): Video: h264 (libopenh264) (High) (avc1 / 0x31637661), yuv420p(tv, bt470bg/bt470bg/smpte170m, progressive), 848x478, 8940 kb/s, 30 fps, 30 tbr, 15360 tbn (default)
      Metadata:
        handler_name    : VideoHandler
        vendor_id       : [0][0][0][0]
        encoder         : Lavc61.19.101 libx264
[vost#0:0/copy @ 0x55d69fbc5200] Filtergraph 'setpts=0.833333*PTS' was specified, but codec copy was selected. Filtering and streamcopy cannot be used together.
Error opening output file noga_part%03d.mp4.
Error opening output files: Function not implemented

[2025-06-02T09:19:25.810136892] Split: /home/patrick/Nya/School-Big-Datas/MED/3.Klasse/5Min-Video-GitHub/paket transporter-30fps.mp4 -> 7 parts, name=noga
[2025-06-02T09:19:28.051913162] Video gesplittet: /home/patrick/Nya/School-Big-Datas/MED/3.Klasse/5Min-Video-GitHub/paket transporter-30fps.mp4 in 7 Teile, Name: noga, OutputFormat: mp4, Bitrate: auto, Auflösung: auto, Codec: copy, Geschwindigkeit: 1.0
[2025-06-02T09:56:18.345187224] Directory loaded: /home/patrick/Nya/School-Big-Datas/MED/3.Klasse/5Min-Video-GitHub
[2025-06-02T09:58:40.981810613] Split: /home/patrick/Nya/School-Big-Datas/MED/3.Klasse/5Min-Video-GitHub/leerer raum gefilmt-30fps.mp4 -> 1 parts, name=noga
[2025-06-02T09:58:43.847150733] Video gesplittet: /home/patrick/Nya/School-Big-Datas/MED/3.Klasse/5Min-Video-GitHub/leerer raum gefilmt-30fps.mp4 in 1 Teile, Name: noga, OutputFormat: mp4, Bitrate: auto, Auflösung: auto, Codec: copy, Geschwindigkeit: 1.0
[2025-06-02T10:02:21.776970310] Directory loaded: /home/patrick/Nya/School-Big-Datas/MED/3.Klasse/5Min-Video-GitHub
[2025-06-02T10:02:49.093381779] Split: /home/patrick/Nya/School-Big-Datas/MED/3.Klasse/5Min-Video-GitHub/garten schalousie-30fps.mp4 -> 1 parts, name=noga
[2025-06-02T10:05:01.874127136] Fehler beim Splitten: ffmpeg version 7.0.2 Copyright (c) 2000-2024 the FFmpeg developers
  built with gcc 14.2.0 (GCC)
  configuration: --prefix=/usr --libdir=/usr/lib/x86_64-linux-gnu --optflags='-O2 -pipe -g -Wp,-D_FORTIFY_SOURCE=3 -Wp,-D_GLIBCXX_ASSERTIONS -fexceptions -fstack-protector-strong -grecord-gcc-switches -fasynchronous-unwind-tables -fstack-clash-protection -fcf-protection -fno-omit-frame-pointer -mno-omit-leaf-frame-pointer ' --extra-ldflags='-Wl,-z,relro,-z,now -Wl,--as-needed ' --disable-stripping --disable-doc --disable-static --disable-encoders --disable-decoders --enable-shared --enable-gnutls --enable-gcrypt --enable-ladspa --enable-lcms2 --enable-libaom --enable-libdav1d --enable-libmp3lame --enable-libfontconfig --enable-libfreetype --enable-libfribidi --enable-libjxl --enable-libopus --enable-libpulse --enable-libspeex --enable-libtheora --enable-libvorbis --enable-libvpx --enable-librsvg --enable-libwebp --enable-libxml2 --enable-libopenjpeg --enable-libsvtav1 --enable-openal --enable-opengl --enable-sdl2 --enable-vulkan --enable-zlib --enable-libv4l2 --enable-libxcb --enable-vdpau --enable-vaapi --enable-pthreads --enable-libopenh264 --arch=x86_64 --enable-libfdk-aac --enable-encoder='a64multi,a64multi5,aac,libfdk_aac,ac3,adpcm_adx,adpcm_argo,adpcm_g722,adpcm_g726,adpcm_g726le,adpcm_ima_alp,adpcm_ima_amv,adpcm_ima_apm,adpcm_ima_qt,adpcm_ima_ssi,adpcm_ima_wav,adpcm_ima_ws,adpcm_ms,adpcm_swf,adpcm_yamaha,alac,alias_pix,amv,anull,apng,ass,asv1,asv2,av1_amf,av1_nvenc,av1_qsv,av1_vaapi,bitpacked,bmp,cinepak,cljr,dca,dfpwm,dnxhd,dpx,dvbsub,dvdsub,dvvideo,exr,ffv1,ffvhuff,flac,flashsv,flashsv2,flv,g723_1,gif,h261,h263,h263_v4l2m2m,h263p,h264_amf,h264_nvenc,h264_qsv,h264_v4l2m2m,h264_vaapi,hap,hdr,hevc_amf,hevc_nvenc,hevc_qsv,hevc_v4l2m2m,hevc_vaapi,huffyuv,ilbc,jpeg2000,jpegls,libaom,libaom_av1,libcodec2,libgsm,libgsm_ms,libilbc,libjxl,libmp3lame,libopencore_amrnb,libopenh264,libopenjpeg,libopus,librav1e,libspeex,libsvtav1,libtheora,libtwolame,libvo_amrwbenc,libvorbis,libvpx_vp8,libvpx_vp9,libwebp,libwebp_anim,libxvid,mjpeg,mjpeg_qsv,mjpeg_vaapi,mlp,mp2,mp2fixed,mpeg1video,mpeg2_qsv,mpeg2_vaapi,mpeg2video,mpeg4,mpeg4_v4l2m2m,msmpeg4v2,msmpeg4v3,msvideo1,nellymoser,opus,pam,pbm,pcm_alaw,pcm_f32be,pcm_f32le,pcm_f64be,pcm_f64le,pcm_mulaw,pcm_s16be,pcm_s16be_planar,pcm_s16le,pcm_s16le_planar,pcm_s24be,pcm_s24le,pcm_s24le_planar,pcm_s32be,pcm_s32le,pcm_s32le_planar,pcm_s8,pcm_s8_planar,pcm_u16be,pcm_u16le,pcm_u24be,pcm_u24le,pcm_u32be,pcm_u32le,pcm_u8,pcx,pgm,pgmyuv,phm,png,ppm,qoi,qtrle,r10k,r210,ra_144,rawvideo,roq,roq_dpcm,rpza,rv10,rv20,s302m,sbc,sgi,smc,snow,sonic,sonic_ls,speedhq,srt,ssa,subrip,sunrast,svq1,targa,text,tiff,truehd,tta,ttml,utvideo,v210,v308,v408,v410,vc1_qsv,vc1_v4l2m2m,vc2,vnull,vorbis,vp8_qsv,vp8_v4l2m2m,vp8_vaapi,vp9_qsv,vp9_vaapi,wavpack,wbmp,webvtt,wmav1,wmav2,wmv1,wmv2,wrapped_avframe,xbm,xface,xsub,xwd,y41p,yuv4,zlib,zmbv,' --enable-decoder='aasc,libfdk_aac,ac3,acelp_kelvin,adpcm_4xm,adpcm_adx,adpcm_afc,adpcm_agm,adpcm_aica,adpcm_argo,adpcm_ct,adpcm_dtk,adpcm_ea,adpcm_ea_maxis_xa,adpcm_ea_r1,adpcm_ea_r2,adpcm_ea_r3,adpcm_ea_xas,adpcm_g722,adpcm_g726,adpcm_g726le,adpcm_ima_acorn,adpcm_ima_alp,adpcm_ima_amv,adpcm_ima_apc,adpcm_ima_apm,adpcm_ima_cunning,adpcm_ima_dat4,adpcm_ima_dk3,adpcm_ima_dk4,adpcm_ima_ea_eacs,adpcm_ima_ea_sead,adpcm_ima_iss,adpcm_ima_moflex,adpcm_ima_mtf,adpcm_ima_oki,adpcm_ima_qt,adpcm_ima_qt_at,adpcm_ima_rad,adpcm_ima_smjpeg,adpcm_ima_ssi,adpcm_ima_wav,adpcm_ima_ws,adpcm_ms,adpcm_mtaf,adpcm_psx,adpcm_sbpro_2,adpcm_sbpro_3,adpcm_sbpro_4,adpcm_swf,adpcm_thp,adpcm_thp_le,adpcm_vima,adpcm_xa,adpcm_xmd,adpcm_yamaha,adpcm_zork,alac,alias_pix,amrnb,amrwb,amv,anm,ansi,anull,apac,ape,apng,arbc,argo,ass,asv1,asv2,atrac1,atrac3,atrac3al,atrac3p,atrac3pal,aura,aura2,av1,av1_qsv,bethsoftvid,bfi,bink,binkaudio_dct,binkaudio_rdft,bintext,bitpacked,bmp,bmv_audio,bmv_video,bonk,brender_pix,c93,cbd2_dpcm,ccaption,cdgraphics,cdtoons,cdxl,cinepak,clearvideo,cljr,cook,cpia,cscd,cyuv,dca,dds,derf_dpcm,dfa,dfpwm,dirac,dnxhd,dolby_e,dpx,dsd_lsbf,dsd_msbf,dsicinaudio,dsicinvideo,dss_sp,dvaudio,dvbsub,dvdsub,dvvideo,dxa,dxtory,eacmv,eamad,eatgq,eatgv,eatqi,eightbps,eightsvx_exp,eightsvx_fib,escape124,escape130,evrc,exr,ffv1,ffvhuff,ffwavesynth,fits,flac,flashsv,flashsv2,flic,flv,fmvc,fourxm,ftr,g723_1,g729,gdv,gem,gif,gremlin_dpcm,gsm,gsm_ms,gsm_ms_at,h261,h263,h263_v4l2m2m,h263i,h263p,hap,hca,hcom,hdr,hnm4_video,hq_hqa,hqx,huffyuv,hymt,iac,idcin,idf,iff_ilbm,ilbc,imc,indeo2,indeo3,indeo4,indeo5,interplay_acm,interplay_dpcm,interplay_video,ipu,jacosub,jpeg2000,jpegls,jv,kgv1,kmvc,lagarith,libaom,libaom_av1,libcodec2,libdav1d,libgsm,libgsm_ms,libilbc,libjxl,libopencore_amrnb,libopencore_amrwb,libopenh264,libopenjpeg,libopus,librsvg,libschroedinger,libspeex,libvorbis,libvpx_vp8,libvpx_vp9,libzvbi_teletext,loco,lscr,m101,mace3,mace6,mdec,media100,metasound,microdvd,mimic,misc4,mjpeg,mjpeg_qsv,mjpegb,mlp,mmvideo,motionpixels,mp1,mp1float,mp2,mp2float,mp3,mp3adu,mp3adufloat,mp3float,mp3on4,mp3on4float,mpc7,mpc8,mpeg1_v4l2m2m,mpeg1video,mpeg2_qsv,mpeg2_v4l2m2m,mpeg2video,mpeg4,mpeg4_v4l2m2m,mpegvideo,mpl2,msa1,mscc,msmpeg4v1,msmpeg4v2,msmpeg4v3,msnsiren,msp2,msrle,mss1,mss2,msvideo1,mszh,mts2,mv30,mvc1,mvc2,mvdv,mvha,mwsc,mxpeg,nellymoser,nuv,on2avc,opus,paf_audio,paf_video,pam,pbm,pcm_alaw,pcm_bluray,pcm_dvd,pcm_f16le,pcm_f24le,pcm_f32be,pcm_f32le,pcm_f64be,pcm_f64le,pcm_lxf,pcm_mulaw,pcm_s16be,pcm_s16be_planar,pcm_s16le,pcm_s16le_planar,pcm_s24be,pcm_s24daud,pcm_s24le,pcm_s24le_planar,pcm_s32be,pcm_s32le,pcm_s32le_planar,pcm_s64be,pcm_s64le,pcm_s8,pcm_s8_planar,pcm_sga,pcm_u16be,pcm_u16le,pcm_u24be,pcm_u24le,pcm_u32be,pcm_u32le,pcm_u8,pcm_vidc,pcx,pfm,pgm,pgmyuv,pgssub,pgx,phm,photocd,pictor,pjs,png,ppm,prosumer,psd,ptx,qcelp,qdm2,qdmc,qdraw,qoa,qoi,qpeg,qtrle,r10k,r210,ra_144,ra_288,rasc,rawvideo,realtext,rka,rl2,roq,roq_dpcm,rpza,rscc,rv10,rv20,s302m,sami,sanm,sbc,screenpresso,sdx2_dpcm,sgi,sgirle,shorten,simbiosis_imx,sipr,siren,smackaud,smacker,smc,smvjpeg,snow,sol_dpcm,sonic,sp5x,speedhq,speex,srgc,srt,ssa,stl,subrip,subviewer,subviewer1,sunrast,svq1,svq3,tak,targa,targa_y216,tdsc,text,theora,thp,tiertexseqvideo,tiff,tmv,truehd,truemotion1,truemotion2,truemotion2rt,truespeech,tscc,tscc2,tta,twinvq,txd,ulti,utvideo,v210,v210x,v308,v408,v410,vb,vble,vcr1,vmdaudio,vmdvideo,vmnc,vnull,vorbis,vp3,vp4,vp5,vp6,vp6a,vp6f,vp7,vp8,vp8_qsv,vp8_v4l2m2m,vp9,vp9_qsv,vp9_v4l2m2m,vplayer,vqa,vqc,wady_dpcm,wavarc,wavpack,wbmp,wcmv,webp,webvtt,wmav1,wmav2,wmavoice,wmv1,wmv2,wnv1,wrapped_avframe,ws_snd1,xan_dpcm,xan_wc3,xan_wc4,xbin,xbm,xface,xl,xpm,xsub,xwd,y41p,ylc,yop,yuv4,zero12v,zerocodec,zlib,zmbv,' --disable-decoder='h264,hevc,vc1,vvc'
  libavutil      59.  8.100 / 59.  8.100
  libavcodec     61.  3.100 / 61.  3.100
  libavformat    61.  1.100 / 61.  1.100
  libavdevice    61.  1.100 / 61.  1.100
  libavfilter    10.  1.100 / 10.  1.100
  libswscale      8.  1.100 /  8.  1.100
  libswresample   5.  1.100 /  5.  1.100
Input #0, mov,mp4,m4a,3gp,3g2,mj2, from '/home/patrick/Nya/School-Big-Datas/MED/3.Klasse/5Min-Video-GitHub/garten schalousie-30fps.mp4':
  Metadata:
    major_brand     : isom
    minor_version   : 512
    compatible_brands: isomiso2avc1mp41
    encoder         : Lavf61.7.100
  Duration: 00:00:05.43, start: 0.000000, bitrate: 9209 kb/s
  Stream #0:0[0x1](und): Video: h264 (libopenh264) (High) (avc1 / 0x31637661), yuv420p(tv, bt470bg/bt470bg/smpte170m, progressive), 848x478, 8959 kb/s, 30 fps, 30 tbr, 15360 tbn (default)
      Metadata:
        handler_name    : VideoHandler
        vendor_id       : [0][0][0][0]
        encoder         : Lavc61.19.101 h264_vaapi
  Stream #0:1[0x2](und): Audio: aac (libfdk_aac) (mp4a / 0x6134706D), 48000 Hz, stereo, s16, 243 kb/s (default)
      Metadata:
        handler_name    : SoundHandler
        vendor_id       : [0][0][0][0]
[vost#0:0/copy @ 0x55a7a1038680] Filtergraph 'setpts=0.833333*PTS' was specified, but codec copy was selected. Filtering and streamcopy cannot be used together.
Error opening output file noga_part%03d.mov.
Error opening output files: Function not implemented

[2025-06-02T10:05:07.371234069] Split: /home/patrick/Nya/School-Big-Datas/MED/3.Klasse/5Min-Video-GitHub/garten schalousie-30fps.mp4 -> 1 parts, name=noga
[2025-06-02T10:05:19.046614377] Fehler beim Splitten: ffmpeg version 7.0.2 Copyright (c) 2000-2024 the FFmpeg developers
  built with gcc 14.2.0 (GCC)
  configuration: --prefix=/usr --libdir=/usr/lib/x86_64-linux-gnu --optflags='-O2 -pipe -g -Wp,-D_FORTIFY_SOURCE=3 -Wp,-D_GLIBCXX_ASSERTIONS -fexceptions -fstack-protector-strong -grecord-gcc-switches -fasynchronous-unwind-tables -fstack-clash-protection -fcf-protection -fno-omit-frame-pointer -mno-omit-leaf-frame-pointer ' --extra-ldflags='-Wl,-z,relro,-z,now -Wl,--as-needed ' --disable-stripping --disable-doc --disable-static --disable-encoders --disable-decoders --enable-shared --enable-gnutls --enable-gcrypt --enable-ladspa --enable-lcms2 --enable-libaom --enable-libdav1d --enable-libmp3lame --enable-libfontconfig --enable-libfreetype --enable-libfribidi --enable-libjxl --enable-libopus --enable-libpulse --enable-libspeex --enable-libtheora --enable-libvorbis --enable-libvpx --enable-librsvg --enable-libwebp --enable-libxml2 --enable-libopenjpeg --enable-libsvtav1 --enable-openal --enable-opengl --enable-sdl2 --enable-vulkan --enable-zlib --enable-libv4l2 --enable-libxcb --enable-vdpau --enable-vaapi --enable-pthreads --enable-libopenh264 --arch=x86_64 --enable-libfdk-aac --enable-encoder='a64multi,a64multi5,aac,libfdk_aac,ac3,adpcm_adx,adpcm_argo,adpcm_g722,adpcm_g726,adpcm_g726le,adpcm_ima_alp,adpcm_ima_amv,adpcm_ima_apm,adpcm_ima_qt,adpcm_ima_ssi,adpcm_ima_wav,adpcm_ima_ws,adpcm_ms,adpcm_swf,adpcm_yamaha,alac,alias_pix,amv,anull,apng,ass,asv1,asv2,av1_amf,av1_nvenc,av1_qsv,av1_vaapi,bitpacked,bmp,cinepak,cljr,dca,dfpwm,dnxhd,dpx,dvbsub,dvdsub,dvvideo,exr,ffv1,ffvhuff,flac,flashsv,flashsv2,flv,g723_1,gif,h261,h263,h263_v4l2m2m,h263p,h264_amf,h264_nvenc,h264_qsv,h264_v4l2m2m,h264_vaapi,hap,hdr,hevc_amf,hevc_nvenc,hevc_qsv,hevc_v4l2m2m,hevc_vaapi,huffyuv,ilbc,jpeg2000,jpegls,libaom,libaom_av1,libcodec2,libgsm,libgsm_ms,libilbc,libjxl,libmp3lame,libopencore_amrnb,libopenh264,libopenjpeg,libopus,librav1e,libspeex,libsvtav1,libtheora,libtwolame,libvo_amrwbenc,libvorbis,libvpx_vp8,libvpx_vp9,libwebp,libwebp_anim,libxvid,mjpeg,mjpeg_qsv,mjpeg_vaapi,mlp,mp2,mp2fixed,mpeg1video,mpeg2_qsv,mpeg2_vaapi,mpeg2video,mpeg4,mpeg4_v4l2m2m,msmpeg4v2,msmpeg4v3,msvideo1,nellymoser,opus,pam,pbm,pcm_alaw,pcm_f32be,pcm_f32le,pcm_f64be,pcm_f64le,pcm_mulaw,pcm_s16be,pcm_s16be_planar,pcm_s16le,pcm_s16le_planar,pcm_s24be,pcm_s24le,pcm_s24le_planar,pcm_s32be,pcm_s32le,pcm_s32le_planar,pcm_s8,pcm_s8_planar,pcm_u16be,pcm_u16le,pcm_u24be,pcm_u24le,pcm_u32be,pcm_u32le,pcm_u8,pcx,pgm,pgmyuv,phm,png,ppm,qoi,qtrle,r10k,r210,ra_144,rawvideo,roq,roq_dpcm,rpza,rv10,rv20,s302m,sbc,sgi,smc,snow,sonic,sonic_ls,speedhq,srt,ssa,subrip,sunrast,svq1,targa,text,tiff,truehd,tta,ttml,utvideo,v210,v308,v408,v410,vc1_qsv,vc1_v4l2m2m,vc2,vnull,vorbis,vp8_qsv,vp8_v4l2m2m,vp8_vaapi,vp9_qsv,vp9_vaapi,wavpack,wbmp,webvtt,wmav1,wmav2,wmv1,wmv2,wrapped_avframe,xbm,xface,xsub,xwd,y41p,yuv4,zlib,zmbv,' --enable-decoder='aasc,libfdk_aac,ac3,acelp_kelvin,adpcm_4xm,adpcm_adx,adpcm_afc,adpcm_agm,adpcm_aica,adpcm_argo,adpcm_ct,adpcm_dtk,adpcm_ea,adpcm_ea_maxis_xa,adpcm_ea_r1,adpcm_ea_r2,adpcm_ea_r3,adpcm_ea_xas,adpcm_g722,adpcm_g726,adpcm_g726le,adpcm_ima_acorn,adpcm_ima_alp,adpcm_ima_amv,adpcm_ima_apc,adpcm_ima_apm,adpcm_ima_cunning,adpcm_ima_dat4,adpcm_ima_dk3,adpcm_ima_dk4,adpcm_ima_ea_eacs,adpcm_ima_ea_sead,adpcm_ima_iss,adpcm_ima_moflex,adpcm_ima_mtf,adpcm_ima_oki,adpcm_ima_qt,adpcm_ima_qt_at,adpcm_ima_rad,adpcm_ima_smjpeg,adpcm_ima_ssi,adpcm_ima_wav,adpcm_ima_ws,adpcm_ms,adpcm_mtaf,adpcm_psx,adpcm_sbpro_2,adpcm_sbpro_3,adpcm_sbpro_4,adpcm_swf,adpcm_thp,adpcm_thp_le,adpcm_vima,adpcm_xa,adpcm_xmd,adpcm_yamaha,adpcm_zork,alac,alias_pix,amrnb,amrwb,amv,anm,ansi,anull,apac,ape,apng,arbc,argo,ass,asv1,asv2,atrac1,atrac3,atrac3al,atrac3p,atrac3pal,aura,aura2,av1,av1_qsv,bethsoftvid,bfi,bink,binkaudio_dct,binkaudio_rdft,bintext,bitpacked,bmp,bmv_audio,bmv_video,bonk,brender_pix,c93,cbd2_dpcm,ccaption,cdgraphics,cdtoons,cdxl,cinepak,clearvideo,cljr,cook,cpia,cscd,cyuv,dca,dds,derf_dpcm,dfa,dfpwm,dirac,dnxhd,dolby_e,dpx,dsd_lsbf,dsd_msbf,dsicinaudio,dsicinvideo,dss_sp,dvaudio,dvbsub,dvdsub,dvvideo,dxa,dxtory,eacmv,eamad,eatgq,eatgv,eatqi,eightbps,eightsvx_exp,eightsvx_fib,escape124,escape130,evrc,exr,ffv1,ffvhuff,ffwavesynth,fits,flac,flashsv,flashsv2,flic,flv,fmvc,fourxm,ftr,g723_1,g729,gdv,gem,gif,gremlin_dpcm,gsm,gsm_ms,gsm_ms_at,h261,h263,h263_v4l2m2m,h263i,h263p,hap,hca,hcom,hdr,hnm4_video,hq_hqa,hqx,huffyuv,hymt,iac,idcin,idf,iff_ilbm,ilbc,imc,indeo2,indeo3,indeo4,indeo5,interplay_acm,interplay_dpcm,interplay_video,ipu,jacosub,jpeg2000,jpegls,jv,kgv1,kmvc,lagarith,libaom,libaom_av1,libcodec2,libdav1d,libgsm,libgsm_ms,libilbc,libjxl,libopencore_amrnb,libopencore_amrwb,libopenh264,libopenjpeg,libopus,librsvg,libschroedinger,libspeex,libvorbis,libvpx_vp8,libvpx_vp9,libzvbi_teletext,loco,lscr,m101,mace3,mace6,mdec,media100,metasound,microdvd,mimic,misc4,mjpeg,mjpeg_qsv,mjpegb,mlp,mmvideo,motionpixels,mp1,mp1float,mp2,mp2float,mp3,mp3adu,mp3adufloat,mp3float,mp3on4,mp3on4float,mpc7,mpc8,mpeg1_v4l2m2m,mpeg1video,mpeg2_qsv,mpeg2_v4l2m2m,mpeg2video,mpeg4,mpeg4_v4l2m2m,mpegvideo,mpl2,msa1,mscc,msmpeg4v1,msmpeg4v2,msmpeg4v3,msnsiren,msp2,msrle,mss1,mss2,msvideo1,mszh,mts2,mv30,mvc1,mvc2,mvdv,mvha,mwsc,mxpeg,nellymoser,nuv,on2avc,opus,paf_audio,paf_video,pam,pbm,pcm_alaw,pcm_bluray,pcm_dvd,pcm_f16le,pcm_f24le,pcm_f32be,pcm_f32le,pcm_f64be,pcm_f64le,pcm_lxf,pcm_mulaw,pcm_s16be,pcm_s16be_planar,pcm_s16le,pcm_s16le_planar,pcm_s24be,pcm_s24daud,pcm_s24le,pcm_s24le_planar,pcm_s32be,pcm_s32le,pcm_s32le_planar,pcm_s64be,pcm_s64le,pcm_s8,pcm_s8_planar,pcm_sga,pcm_u16be,pcm_u16le,pcm_u24be,pcm_u24le,pcm_u32be,pcm_u32le,pcm_u8,pcm_vidc,pcx,pfm,pgm,pgmyuv,pgssub,pgx,phm,photocd,pictor,pjs,png,ppm,prosumer,psd,ptx,qcelp,qdm2,qdmc,qdraw,qoa,qoi,qpeg,qtrle,r10k,r210,ra_144,ra_288,rasc,rawvideo,realtext,rka,rl2,roq,roq_dpcm,rpza,rscc,rv10,rv20,s302m,sami,sanm,sbc,screenpresso,sdx2_dpcm,sgi,sgirle,shorten,simbiosis_imx,sipr,siren,smackaud,smacker,smc,smvjpeg,snow,sol_dpcm,sonic,sp5x,speedhq,speex,srgc,srt,ssa,stl,subrip,subviewer,subviewer1,sunrast,svq1,svq3,tak,targa,targa_y216,tdsc,text,theora,thp,tiertexseqvideo,tiff,tmv,truehd,truemotion1,truemotion2,truemotion2rt,truespeech,tscc,tscc2,tta,twinvq,txd,ulti,utvideo,v210,v210x,v308,v408,v410,vb,vble,vcr1,vmdaudio,vmdvideo,vmnc,vnull,vorbis,vp3,vp4,vp5,vp6,vp6a,vp6f,vp7,vp8,vp8_qsv,vp8_v4l2m2m,vp9,vp9_qsv,vp9_v4l2m2m,vplayer,vqa,vqc,wady_dpcm,wavarc,wavpack,wbmp,wcmv,webp,webvtt,wmav1,wmav2,wmavoice,wmv1,wmv2,wnv1,wrapped_avframe,ws_snd1,xan_dpcm,xan_wc3,xan_wc4,xbin,xbm,xface,xl,xpm,xsub,xwd,y41p,ylc,yop,yuv4,zero12v,zerocodec,zlib,zmbv,' --disable-decoder='h264,hevc,vc1,vvc'
  libavutil      59.  8.100 / 59.  8.100
  libavcodec     61.  3.100 / 61.  3.100
  libavformat    61.  1.100 / 61.  1.100
  libavdevice    61.  1.100 / 61.  1.100
  libavfilter    10.  1.100 / 10.  1.100
  libswscale      8.  1.100 /  8.  1.100
  libswresample   5.  1.100 /  5.  1.100
Input #0, mov,mp4,m4a,3gp,3g2,mj2, from '/home/patrick/Nya/School-Big-Datas/MED/3.Klasse/5Min-Video-GitHub/garten schalousie-30fps.mp4':
  Metadata:
    major_brand     : isom
    minor_version   : 512
    compatible_brands: isomiso2avc1mp41
    encoder         : Lavf61.7.100
  Duration: 00:00:05.43, start: 0.000000, bitrate: 9209 kb/s
  Stream #0:0[0x1](und): Video: h264 (libopenh264) (High) (avc1 / 0x31637661), yuv420p(tv, bt470bg/bt470bg/smpte170m, progressive), 848x478, 8959 kb/s, 30 fps, 30 tbr, 15360 tbn (default)
      Metadata:
        handler_name    : VideoHandler
        vendor_id       : [0][0][0][0]
        encoder         : Lavc61.19.101 h264_vaapi
  Stream #0:1[0x2](und): Audio: aac (libfdk_aac) (mp4a / 0x6134706D), 48000 Hz, stereo, s16, 243 kb/s (default)
      Metadata:
        handler_name    : SoundHandler
        vendor_id       : [0][0][0][0]
[vost#0:0/copy @ 0x558a8799e640] Filtergraph 'setpts=0.833333*PTS' was specified, but codec copy was selected. Filtering and streamcopy cannot be used together.
Error opening output file noga_part%03d.mov.
Error opening output files: Function not implemented

[2025-06-02T10:05:23.754214812] Split: /home/patrick/Nya/School-Big-Datas/MED/3.Klasse/5Min-Video-GitHub/garten schalousie-30fps.mp4 -> 1 parts, name=noga
[2025-06-02T10:05:26.343875883] Video gesplittet: /home/patrick/Nya/School-Big-Datas/MED/3.Klasse/5Min-Video-GitHub/garten schalousie-30fps.mp4 in 1 Teile, Name: noga, OutputFormat: mov, Bitrate: auto, Auflösung: 1280x720, Codec: copy, Geschwindigkeit: 1.0
[2025-06-02T10:05:54.039858825] Split: /home/patrick/Nya/School-Big-Datas/MED/3.Klasse/5Min-Video-GitHub/paket transporter-30fps.mp4 -> 2 parts, name=eiujeivgfoijp4
[2025-06-02T10:05:55.385515793] Video gesplittet: /home/patrick/Nya/School-Big-Datas/MED/3.Klasse/5Min-Video-GitHub/paket transporter-30fps.mp4 in 2 Teile, Name: eiujeivgfoijp4, OutputFormat: mov, Bitrate: auto, Auflösung: 854x480, Codec: copy, Geschwindigkeit: 1.0
[2025-06-02T10:06:36.755967647] Split: /home/patrick/Nya/School-Big-Datas/MED/3.Klasse/5Min-Video-GitHub/paket transporter-30fps.mp4 -> 3 parts, name=noga
[2025-06-02T10:06:38.506553871] Video gesplittet: /home/patrick/Nya/School-Big-Datas/MED/3.Klasse/5Min-Video-GitHub/paket transporter-30fps.mp4 in 3 Teile, Name: noga, OutputFormat: m4v, Bitrate: auto, Auflösung: 640x360, Codec: copy, Geschwindigkeit: 1.0
[2025-06-02T21:10:20.200639361] Directory loaded: /home/patrick/Nya/School-Big-Datas/MED/3.Klasse/5Min-Video-GitHub
[2025-06-02T21:10:50.998711440] Split: /home/patrick/Nya/School-Big-Datas/MED/3.Klasse/5Min-Video-GitHub/leerer raum gefilmt.mp4 -> 2 parts, name=random-name
[2025-06-02T21:10:54.152632549] Video gesplittet: /home/patrick/Nya/School-Big-Datas/MED/3.Klasse/5Min-Video-GitHub/leerer raum gefilmt.mp4 in 2 Teile, Name: random-name, OutputFormat: mov, Bitrate: auto, Auflösung: 426x240, Codec: copy, Geschwindigkeit: 1.0
[2025-06-02T21:11:28.681295752] Split: /home/patrick/Nya/School-Big-Datas/MED/3.Klasse/5Min-Video-GitHub/leerer raum gefilmt.mp4 -> 2 parts, name=random-name
[2025-06-02T21:11:30.812258755] Video gesplittet: /home/patrick/Nya/School-Big-Datas/MED/3.Klasse/5Min-Video-GitHub/leerer raum gefilmt.mp4 in 2 Teile, Name: random-name, OutputFormat: mov, Bitrate: auto, Auflösung: 426x240, Codec: copy, Geschwindigkeit: 1.0
[2025-06-02T21:11:56.166025699] Split: /home/patrick/Nya/School-Big-Datas/MED/3.Klasse/5Min-Video-GitHub/leerer raum gefilmt.mp4 -> 7 parts, name=random-name
[2025-06-02T21:11:58.527847538] Video gesplittet: /home/patrick/Nya/School-Big-Datas/MED/3.Klasse/5Min-Video-GitHub/leerer raum gefilmt.mp4 in 7 Teile, Name: random-name, OutputFormat: mov, Bitrate: auto, Auflösung: 426x240, Codec: copy, Geschwindigkeit: 1.0
[2025-06-02T21:13:35.085338309] Split: /home/patrick/Nya/School-Big-Datas/MED/3.Klasse/5Min-Video-GitHub/leerer raum gefilmt.mp4 -> 2 parts, name=random-name
[2025-06-02T21:13:37.182219204] Video gesplittet: /home/patrick/Nya/School-Big-Datas/MED/3.Klasse/5Min-Video-GitHub/leerer raum gefilmt.mp4 in 2 Teile, Name: random-name, OutputFormat: mov, Bitrate: auto, Auflösung: auto, Codec: copy, Geschwindigkeit: 1.0
[2025-06-02T21:13:55.339421060] Split: /home/patrick/Nya/School-Big-Datas/MED/3.Klasse/5Min-Video-GitHub/leerer raum gefilmt.mp4 -> 3 parts, name=random-name
[2025-06-02T21:13:57.136708063] Video gesplittet: /home/patrick/Nya/School-Big-Datas/MED/3.Klasse/5Min-Video-GitHub/leerer raum gefilmt.mp4 in 3 Teile, Name: random-name, OutputFormat: mov, Bitrate: auto, Auflösung: 426x240, Codec: copy, Geschwindigkeit: 1.0
[2025-06-02T21:18:44.380055236] Directory loaded: /home/patrick/Nya/School-Big-Datas/MED/3.Klasse/5Min-Video-GitHub
[2025-06-02T21:19:01.527412444] Split: /home/patrick/Nya/School-Big-Datas/MED/3.Klasse/5Min-Video-GitHub/abgetrennte tür klinke-30fps.mp4 -> 3 parts, name=random-name
[2025-06-02T21:19:03.953118189] Video gesplittet: /home/patrick/Nya/School-Big-Datas/MED/3.Klasse/5Min-Video-GitHub/abgetrennte tür klinke-30fps.mp4 in 3 Teile, Name: random-name, OutputFormat: mov, Bitrate: auto, Auflösung: 1280x720, Codec: copy, Geschwindigkeit: 1.0
[2025-06-02T21:19:57.421702741] Split: /home/patrick/Nya/School-Big-Datas/MED/3.Klasse/5Min-Video-GitHub/abgetrennte tür klinke-30fps.mp4 -> 3 parts, name=random-name
[2025-06-02T21:20:30.393327448] Video gesplittet: /home/patrick/Nya/School-Big-Datas/MED/3.Klasse/5Min-Video-GitHub/abgetrennte tür klinke-30fps.mp4 in 3 Teile, Name: random-name, OutputFormat: mov, Bitrate: auto, Auflösung: 1280x720, Codec: copy, Geschwindigkeit: 1.0
[2025-06-02T21:22:17.787000166] Split: /home/patrick/Nya/School-Big-Datas/MED/3.Klasse/5Min-Video-GitHub/abgetrennte tür klinke-30fps.mp4 -> 7 parts, name=random-name
[2025-06-02T21:22:19.571023975] Video gesplittet: /home/patrick/Nya/School-Big-Datas/MED/3.Klasse/5Min-Video-GitHub/abgetrennte tür klinke-30fps.mp4 in 7 Teile, Name: random-name, OutputFormat: mov, Bitrate: auto, Auflösung: 1280x720, Codec: copy, Geschwindigkeit: 1.0
[2025-06-02T21:23:18.433849289] Split: /home/patrick/Nya/School-Big-Datas/MED/3.Klasse/5Min-Video-GitHub/abgetrennte tür klinke-30fps.mp4 -> 2 parts, name=random-name
[2025-06-02T21:23:26.552115372] Fehler beim Splitten: ffmpeg version 7.0.2 Copyright (c) 2000-2024 the FFmpeg developers
  built with gcc 14.2.0 (GCC)
  configuration: --prefix=/usr --libdir=/usr/lib/x86_64-linux-gnu --optflags='-O2 -pipe -g -Wp,-D_FORTIFY_SOURCE=3 -Wp,-D_GLIBCXX_ASSERTIONS -fexceptions -fstack-protector-strong -grecord-gcc-switches -fasynchronous-unwind-tables -fstack-clash-protection -fcf-protection -fno-omit-frame-pointer -mno-omit-leaf-frame-pointer ' --extra-ldflags='-Wl,-z,relro,-z,now -Wl,--as-needed ' --disable-stripping --disable-doc --disable-static --disable-encoders --disable-decoders --enable-shared --enable-gnutls --enable-gcrypt --enable-ladspa --enable-lcms2 --enable-libaom --enable-libdav1d --enable-libmp3lame --enable-libfontconfig --enable-libfreetype --enable-libfribidi --enable-libjxl --enable-libopus --enable-libpulse --enable-libspeex --enable-libtheora --enable-libvorbis --enable-libvpx --enable-librsvg --enable-libwebp --enable-libxml2 --enable-libopenjpeg --enable-libsvtav1 --enable-openal --enable-opengl --enable-sdl2 --enable-vulkan --enable-zlib --enable-libv4l2 --enable-libxcb --enable-vdpau --enable-vaapi --enable-pthreads --enable-libopenh264 --arch=x86_64 --enable-libfdk-aac --enable-encoder='a64multi,a64multi5,aac,libfdk_aac,ac3,adpcm_adx,adpcm_argo,adpcm_g722,adpcm_g726,adpcm_g726le,adpcm_ima_alp,adpcm_ima_amv,adpcm_ima_apm,adpcm_ima_qt,adpcm_ima_ssi,adpcm_ima_wav,adpcm_ima_ws,adpcm_ms,adpcm_swf,adpcm_yamaha,alac,alias_pix,amv,anull,apng,ass,asv1,asv2,av1_amf,av1_nvenc,av1_qsv,av1_vaapi,bitpacked,bmp,cinepak,cljr,dca,dfpwm,dnxhd,dpx,dvbsub,dvdsub,dvvideo,exr,ffv1,ffvhuff,flac,flashsv,flashsv2,flv,g723_1,gif,h261,h263,h263_v4l2m2m,h263p,h264_amf,h264_nvenc,h264_qsv,h264_v4l2m2m,h264_vaapi,hap,hdr,hevc_amf,hevc_nvenc,hevc_qsv,hevc_v4l2m2m,hevc_vaapi,huffyuv,ilbc,jpeg2000,jpegls,libaom,libaom_av1,libcodec2,libgsm,libgsm_ms,libilbc,libjxl,libmp3lame,libopencore_amrnb,libopenh264,libopenjpeg,libopus,librav1e,libspeex,libsvtav1,libtheora,libtwolame,libvo_amrwbenc,libvorbis,libvpx_vp8,libvpx_vp9,libwebp,libwebp_anim,libxvid,mjpeg,mjpeg_qsv,mjpeg_vaapi,mlp,mp2,mp2fixed,mpeg1video,mpeg2_qsv,mpeg2_vaapi,mpeg2video,mpeg4,mpeg4_v4l2m2m,msmpeg4v2,msmpeg4v3,msvideo1,nellymoser,opus,pam,pbm,pcm_alaw,pcm_f32be,pcm_f32le,pcm_f64be,pcm_f64le,pcm_mulaw,pcm_s16be,pcm_s16be_planar,pcm_s16le,pcm_s16le_planar,pcm_s24be,pcm_s24le,pcm_s24le_planar,pcm_s32be,pcm_s32le,pcm_s32le_planar,pcm_s8,pcm_s8_planar,pcm_u16be,pcm_u16le,pcm_u24be,pcm_u24le,pcm_u32be,pcm_u32le,pcm_u8,pcx,pgm,pgmyuv,phm,png,ppm,qoi,qtrle,r10k,r210,ra_144,rawvideo,roq,roq_dpcm,rpza,rv10,rv20,s302m,sbc,sgi,smc,snow,sonic,sonic_ls,speedhq,srt,ssa,subrip,sunrast,svq1,targa,text,tiff,truehd,tta,ttml,utvideo,v210,v308,v408,v410,vc1_qsv,vc1_v4l2m2m,vc2,vnull,vorbis,vp8_qsv,vp8_v4l2m2m,vp8_vaapi,vp9_qsv,vp9_vaapi,wavpack,wbmp,webvtt,wmav1,wmav2,wmv1,wmv2,wrapped_avframe,xbm,xface,xsub,xwd,y41p,yuv4,zlib,zmbv,' --enable-decoder='aasc,libfdk_aac,ac3,acelp_kelvin,adpcm_4xm,adpcm_adx,adpcm_afc,adpcm_agm,adpcm_aica,adpcm_argo,adpcm_ct,adpcm_dtk,adpcm_ea,adpcm_ea_maxis_xa,adpcm_ea_r1,adpcm_ea_r2,adpcm_ea_r3,adpcm_ea_xas,adpcm_g722,adpcm_g726,adpcm_g726le,adpcm_ima_acorn,adpcm_ima_alp,adpcm_ima_amv,adpcm_ima_apc,adpcm_ima_apm,adpcm_ima_cunning,adpcm_ima_dat4,adpcm_ima_dk3,adpcm_ima_dk4,adpcm_ima_ea_eacs,adpcm_ima_ea_sead,adpcm_ima_iss,adpcm_ima_moflex,adpcm_ima_mtf,adpcm_ima_oki,adpcm_ima_qt,adpcm_ima_qt_at,adpcm_ima_rad,adpcm_ima_smjpeg,adpcm_ima_ssi,adpcm_ima_wav,adpcm_ima_ws,adpcm_ms,adpcm_mtaf,adpcm_psx,adpcm_sbpro_2,adpcm_sbpro_3,adpcm_sbpro_4,adpcm_swf,adpcm_thp,adpcm_thp_le,adpcm_vima,adpcm_xa,adpcm_xmd,adpcm_yamaha,adpcm_zork,alac,alias_pix,amrnb,amrwb,amv,anm,ansi,anull,apac,ape,apng,arbc,argo,ass,asv1,asv2,atrac1,atrac3,atrac3al,atrac3p,atrac3pal,aura,aura2,av1,av1_qsv,bethsoftvid,bfi,bink,binkaudio_dct,binkaudio_rdft,bintext,bitpacked,bmp,bmv_audio,bmv_video,bonk,brender_pix,c93,cbd2_dpcm,ccaption,cdgraphics,cdtoons,cdxl,cinepak,clearvideo,cljr,cook,cpia,cscd,cyuv,dca,dds,derf_dpcm,dfa,dfpwm,dirac,dnxhd,dolby_e,dpx,dsd_lsbf,dsd_msbf,dsicinaudio,dsicinvideo,dss_sp,dvaudio,dvbsub,dvdsub,dvvideo,dxa,dxtory,eacmv,eamad,eatgq,eatgv,eatqi,eightbps,eightsvx_exp,eightsvx_fib,escape124,escape130,evrc,exr,ffv1,ffvhuff,ffwavesynth,fits,flac,flashsv,flashsv2,flic,flv,fmvc,fourxm,ftr,g723_1,g729,gdv,gem,gif,gremlin_dpcm,gsm,gsm_ms,gsm_ms_at,h261,h263,h263_v4l2m2m,h263i,h263p,hap,hca,hcom,hdr,hnm4_video,hq_hqa,hqx,huffyuv,hymt,iac,idcin,idf,iff_ilbm,ilbc,imc,indeo2,indeo3,indeo4,indeo5,interplay_acm,interplay_dpcm,interplay_video,ipu,jacosub,jpeg2000,jpegls,jv,kgv1,kmvc,lagarith,libaom,libaom_av1,libcodec2,libdav1d,libgsm,libgsm_ms,libilbc,libjxl,libopencore_amrnb,libopencore_amrwb,libopenh264,libopenjpeg,libopus,librsvg,libschroedinger,libspeex,libvorbis,libvpx_vp8,libvpx_vp9,libzvbi_teletext,loco,lscr,m101,mace3,mace6,mdec,media100,metasound,microdvd,mimic,misc4,mjpeg,mjpeg_qsv,mjpegb,mlp,mmvideo,motionpixels,mp1,mp1float,mp2,mp2float,mp3,mp3adu,mp3adufloat,mp3float,mp3on4,mp3on4float,mpc7,mpc8,mpeg1_v4l2m2m,mpeg1video,mpeg2_qsv,mpeg2_v4l2m2m,mpeg2video,mpeg4,mpeg4_v4l2m2m,mpegvideo,mpl2,msa1,mscc,msmpeg4v1,msmpeg4v2,msmpeg4v3,msnsiren,msp2,msrle,mss1,mss2,msvideo1,mszh,mts2,mv30,mvc1,mvc2,mvdv,mvha,mwsc,mxpeg,nellymoser,nuv,on2avc,opus,paf_audio,paf_video,pam,pbm,pcm_alaw,pcm_bluray,pcm_dvd,pcm_f16le,pcm_f24le,pcm_f32be,pcm_f32le,pcm_f64be,pcm_f64le,pcm_lxf,pcm_mulaw,pcm_s16be,pcm_s16be_planar,pcm_s16le,pcm_s16le_planar,pcm_s24be,pcm_s24daud,pcm_s24le,pcm_s24le_planar,pcm_s32be,pcm_s32le,pcm_s32le_planar,pcm_s64be,pcm_s64le,pcm_s8,pcm_s8_planar,pcm_sga,pcm_u16be,pcm_u16le,pcm_u24be,pcm_u24le,pcm_u32be,pcm_u32le,pcm_u8,pcm_vidc,pcx,pfm,pgm,pgmyuv,pgssub,pgx,phm,photocd,pictor,pjs,png,ppm,prosumer,psd,ptx,qcelp,qdm2,qdmc,qdraw,qoa,qoi,qpeg,qtrle,r10k,r210,ra_144,ra_288,rasc,rawvideo,realtext,rka,rl2,roq,roq_dpcm,rpza,rscc,rv10,rv20,s302m,sami,sanm,sbc,screenpresso,sdx2_dpcm,sgi,sgirle,shorten,simbiosis_imx,sipr,siren,smackaud,smacker,smc,smvjpeg,snow,sol_dpcm,sonic,sp5x,speedhq,speex,srgc,srt,ssa,stl,subrip,subviewer,subviewer1,sunrast,svq1,svq3,tak,targa,targa_y216,tdsc,text,theora,thp,tiertexseqvideo,tiff,tmv,truehd,truemotion1,truemotion2,truemotion2rt,truespeech,tscc,tscc2,tta,twinvq,txd,ulti,utvideo,v210,v210x,v308,v408,v410,vb,vble,vcr1,vmdaudio,vmdvideo,vmnc,vnull,vorbis,vp3,vp4,vp5,vp6,vp6a,vp6f,vp7,vp8,vp8_qsv,vp8_v4l2m2m,vp9,vp9_qsv,vp9_v4l2m2m,vplayer,vqa,vqc,wady_dpcm,wavarc,wavpack,wbmp,wcmv,webp,webvtt,wmav1,wmav2,wmavoice,wmv1,wmv2,wnv1,wrapped_avframe,ws_snd1,xan_dpcm,xan_wc3,xan_wc4,xbin,xbm,xface,xl,xpm,xsub,xwd,y41p,ylc,yop,yuv4,zero12v,zerocodec,zlib,zmbv,' --disable-decoder='h264,hevc,vc1,vvc'
  libavutil      59.  8.100 / 59.  8.100
  libavcodec     61.  3.100 / 61.  3.100
  libavformat    61.  1.100 / 61.  1.100
  libavdevice    61.  1.100 / 61.  1.100
  libavfilter    10.  1.100 / 10.  1.100
  libswscale      8.  1.100 /  8.  1.100
  libswresample   5.  1.100 /  5.  1.100
Input #0, mov,mp4,m4a,3gp,3g2,mj2, from '/home/patrick/Nya/School-Big-Datas/MED/3.Klasse/5Min-Video-GitHub/abgetrennte tür klinke-30fps.mp4':
  Metadata:
    major_brand     : isom
    minor_version   : 512
    compatible_brands: isomiso2avc1mp41
    encoder         : Lavf61.7.100
  Duration: 00:00:11.47, start: 0.000000, bitrate: 2767 kb/s
  Stream #0:0[0x1](und): Video: h264 (libopenh264) (High) (avc1 / 0x31637661), yuv420p(tv, bt470bg/bt470bg/smpte170m, progressive), 848x478, 2511 kb/s, 30 fps, 30 tbr, 15360 tbn (default)
      Metadata:
        handler_name    : VideoHandler
        vendor_id       : [0][0][0][0]
        encoder         : Lavc61.19.101 h264_vaapi
  Stream #0:1[0x2](und): Audio: aac (libfdk_aac) (mp4a / 0x6134706D), 48000 Hz, stereo, s16, 250 kb/s (default)
      Metadata:
        handler_name    : SoundHandler
        vendor_id       : [0][0][0][0]
[vost#0:0/copy @ 0x564d3d181800] Filtergraph 'setpts=0.454545*PTS' was specified, but codec copy was selected. Filtering and streamcopy cannot be used together.
Error opening output file /home/patrick/Nya/School-Big-Datas/MED/3.Klasse/5Min-Video-GitHub/random-name_part%03d.mov.
Error opening output files: Function not implemented

[2025-06-02T21:23:42.167644975] Split: /home/patrick/Nya/School-Big-Datas/MED/3.Klasse/5Min-Video-GitHub/abgetrennte tür klinke-30fps.mp4 -> 3 parts, name=random-name
[2025-06-02T21:23:44.455896703] Video gesplittet: /home/patrick/Nya/School-Big-Datas/MED/3.Klasse/5Min-Video-GitHub/abgetrennte tür klinke-30fps.mp4 in 3 Teile, Name: random-name, OutputFormat: mov, Bitrate: auto, Auflösung: auto, Codec: copy, Geschwindigkeit: 1.0
[2025-06-02T21:24:02.282470453] Audio extrahiert: /home/patrick/Nya/School-Big-Datas/MED/3.Klasse/5Min-Video-GitHub/abgetrennte tür klinke-30fps.mp4 als /home/patrick/Nya/School-Big-Datas/MED/3.Klasse/5Min-Video-GitHub/random-name.mp3
[2025-06-02T21:25:27.303519074] Split: /home/patrick/Nya/School-Big-Datas/MED/3.Klasse/5Min-Video-GitHub/abgetrennte tür klinke-30fps.mp4 -> 3 parts, name=random-name
[2025-06-02T21:25:28.883055782] Video gesplittet: /home/patrick/Nya/School-Big-Datas/MED/3.Klasse/5Min-Video-GitHub/abgetrennte tür klinke-30fps.mp4 in 3 Teile, Name: random-name, OutputFormat: mpeg, Bitrate: auto, Auflösung: auto, Codec: copy, Geschwindigkeit: 1.0
